<?xml version="1.0" encoding="UTF-8"?>
<svg version="1.1" xmlns="http://www.w3.org/2000/svg" width="796" height="263">
<path d="M0 0 C262.68 0 525.36 0 796 0 C796 86.79 796 173.58 796 263 C533.32 263 270.64 263 0 263 C0 176.21 0 89.42 0 0 Z " fill="#FEFEFE" transform="translate(0,0)"/>
<path d="M0 0 C5.94 0 11.88 0 18 0 C21.5033009 21.30696118 24.89867806 42.62379054 27.65625 64.04296875 C27.7951062 65.11901367 27.7951062 65.11901367 27.93676758 66.21679688 C28.16521238 68.01232411 28.38576802 69.80885063 28.60546875 71.60546875 C28.7523155 73.94656367 28.7523155 73.94656367 30 75 C30.21092285 73.95473145 30.4218457 72.90946289 30.63916016 71.83251953 C34.45887273 52.93078015 38.32064446 34.0576229 42.7734375 15.29296875 C43.97225195 10.21711753 45.00492494 5.11952171 46 0 C50.62 0 55.24 0 60 0 C60.235979 1.14025635 60.47195801 2.2805127 60.71508789 3.45532227 C65.59692107 27.02063377 70.58307626 50.55136234 76 74 C77.91299029 67.10649313 78.88695617 60.21166266 79.8125 53.125 C80.15754183 50.55711499 80.50395767 47.98941432 80.8515625 45.421875 C80.94203354 44.75179413 81.03250458 44.08171326 81.12571716 43.3913269 C82.15377721 35.80667445 83.24556577 28.23144338 84.35385132 20.65814209 C84.57571248 19.13995668 84.79644195 17.62160544 85.01602173 16.10308838 C85.32433212 13.97195837 85.63624769 11.8413874 85.94921875 9.7109375 C86.12799561 8.48681152 86.30677246 7.26268555 86.4909668 6.00146484 C87 3 87 3 88 0 C93.61 0 99.22 0 105 0 C104.45316059 10.35522888 102.54799202 20.27229764 100.53417969 30.42684937 C99.50695961 35.60986604 98.50115366 40.79702244 97.49609375 45.984375 C97.1858577 47.58354012 97.1858577 47.58354012 96.86935425 49.2150116 C94.24869431 62.79225231 91.86152882 76.41080963 89.47631836 90.03100586 C89.23630348 91.39832855 89.23630348 91.39832855 88.99143982 92.79327393 C88.69383896 94.49064185 88.39765079 96.18825834 88.10316467 97.88616943 C87.50599908 101.29845269 86.8407743 104.63690281 86 108 C80.39 108 74.78 108 69 108 C65.75593869 96.39540483 63.23685512 84.76164892 60.9375 72.9375 C60.26097795 69.48791377 59.58179032 66.03885498 58.90234375 62.58984375 C58.74083832 61.76745209 58.57933289 60.94506042 58.41293335 60.0977478 C57.02310773 53.04714289 55.5391961 46.01963408 54 39 C53.67 39 53.34 39 53 39 C52.72325439 40.24797363 52.44650879 41.49594727 52.16137695 42.78173828 C51.10889252 47.52714602 50.05564528 52.27238421 49.00219727 57.01757812 C48.55115116 59.04976036 48.1002969 61.08198519 47.6496582 63.11425781 C46.10553783 70.07746431 44.55512235 77.03924268 43 84 C42.76714294 85.04442261 42.53428589 86.08884521 42.29437256 87.16491699 C41.60929759 90.23299771 40.92045318 93.3002076 40.23046875 96.3671875 C40.0209407 97.30732697 39.81141266 98.24746643 39.59553528 99.21609497 C39.4005394 100.07919281 39.20554352 100.94229065 39.00463867 101.83154297 C38.83421555 102.59079071 38.66379242 103.35003845 38.48820496 104.1322937 C38 106 38 106 37 108 C31.39 108 25.78 108 20 108 C16.07453985 88.02668602 12.23414582 68.04139257 8.57177734 48.01806641 C8.28485737 46.4495394 7.99791086 44.88101724 7.7109375 43.3125 C7.5702182 42.5432016 7.4294989 41.7739032 7.28451538 40.98129272 C6.28092665 35.50536244 5.25891907 30.03307561 4.2265625 24.5625 C4.08499222 23.8117218 3.94342194 23.0609436 3.79756165 22.28741455 C3.12654678 18.7311746 2.45326242 15.17538177 1.77709961 11.62011719 C1.5425708 10.37907227 1.30804199 9.13802734 1.06640625 7.859375 C0.85959229 6.77108398 0.65277832 5.68279297 0.43969727 4.56152344 C0 2 0 2 0 0 Z " fill="#040404" transform="translate(217,145)"/>
<path d="M0 0 C5.61 0 11.22 0 17 0 C24.03059468 15.10049467 31.03255885 30.2139 37.9914856 45.3475647 C38.74352128 46.98293809 39.49585803 48.61817307 40.24850464 50.25326538 C41.31507025 52.57074603 42.38037932 54.88880009 43.4453125 57.20703125 C43.7604631 57.89145294 44.07561371 58.57587463 44.40031433 59.28103638 C44.84822075 60.25724442 44.84822075 60.25724442 45.30517578 61.25317383 C45.56130646 61.81047684 45.81743713 62.36777985 46.08132935 62.94197083 C47.4222985 65.94604376 48.70409217 68.97621506 50 72 C50.33 48.24 50.66 24.48 51 0 C56.28 0 61.56 0 67 0 C67 35.64 67 71.28 67 108 C61.72 108 56.44 108 51 108 C45.8091278 97.65912862 40.67733552 87.29354921 35.62768555 76.88305664 C34.56762217 74.69805781 33.50558836 72.51402483 32.44335938 70.33007812 C27.22622052 59.58440095 22.11415057 48.79654008 17 38 C16.67 61.1 16.34 84.2 16 108 C10.72 108 5.44 108 0 108 C0 72.36 0 36.72 0 0 Z " fill="#010101" transform="translate(599,145)"/>
<path d="M0 0 C4.62 0 9.24 0 14 0 C15.21081191 3.74921454 16.41865039 7.49934938 17.625 11.25 C17.95628906 12.27480469 18.28757813 13.29960937 18.62890625 14.35546875 C20.73565841 20.91422546 22.75852347 27.49230014 24.7265625 34.09375 C27.1776201 42.31308452 29.69238558 50.51147026 32.234375 58.703125 C32.60198944 59.88835754 32.96960388 61.07359009 33.34835815 62.29473877 C34.8691833 67.19584044 36.39117994 72.09657464 37.91552734 76.99658203 C39.04457615 80.62733275 40.170909 84.25891726 41.296875 87.890625 C41.81093903 89.53916473 41.81093903 89.53916473 42.33538818 91.2210083 C42.65622375 92.25699158 42.97705933 93.29297485 43.30761719 94.36035156 C43.58708191 95.25933167 43.86654663 96.15831177 44.15447998 97.08453369 C45.20179631 100.69582071 46.08804459 104.35217835 47 108 C41.06 108 35.12 108 29 108 C25.60211268 100.07159624 25.60211268 100.07159624 24.8125 96.3125 C24.65394531 95.58675781 24.49539062 94.86101562 24.33203125 94.11328125 C24 92 24 92 24 88 C13.11 88 2.22 88 -9 88 C-9.99 92.29 -10.98 96.58 -12 101 C-12.66 103.31 -13.32 105.62 -14 108 C-19.94 108 -25.88 108 -32 108 C-30.65282697 100.64236271 -28.79251792 93.63292462 -26.54296875 86.50390625 C-26.20324036 85.41235229 -25.86351196 84.32079834 -25.51348877 83.19616699 C-24.78579542 80.85960815 -24.055887 78.5237382 -23.32394409 76.18850708 C-21.3986246 70.04546655 -19.48937475 63.89742945 -17.578125 57.75 C-17.19293198 56.5125856 -16.80773895 55.2751712 -16.41087341 54.0002594 C-12.6914786 42.03953857 -9.05121354 30.05551262 -5.4375 18.0625 C-5.15651459 17.13059845 -4.87552917 16.1986969 -4.58602905 15.23855591 C-3.0549053 10.15977126 -1.52614253 5.08028362 0 0 Z " fill="#040404" transform="translate(102,145)"/>
<path d="M0 0 C1.79244141 0.01740234 1.79244141 0.01740234 3.62109375 0.03515625 C5.41740234 0.04869141 5.41740234 0.04869141 7.25 0.0625 C8.17683594 0.07410156 9.10367188 0.08570313 10.05859375 0.09765625 C12.91558742 8.32731501 15.52459519 16.58368574 17.87109375 24.97265625 C20.36429483 33.85976414 23.11137216 42.64686466 25.94970703 51.42919922 C29.77655458 63.28096245 33.43489218 75.18243415 37.05859375 87.09765625 C37.33396973 87.99709961 37.6093457 88.89654297 37.89306641 89.82324219 C38.62098136 92.20459657 39.341377 94.58806155 40.05859375 96.97265625 C40.26637451 97.65005859 40.47415527 98.32746094 40.68823242 99.02539062 C41.64715263 102.25172699 42.05859375 104.68165612 42.05859375 108.09765625 C36.11859375 108.09765625 30.17859375 108.09765625 24.05859375 108.09765625 C23.39859375 105.72578125 22.73859375 103.35390625 22.05859375 100.91015625 C21.84976563 100.1725708 21.6409375 99.43498535 21.42578125 98.67504883 C20.40063539 94.90957012 20.05859375 92.06778671 20.05859375 88.09765625 C9.16859375 88.09765625 -1.72140625 88.09765625 -12.94140625 88.09765625 C-13.93140625 93.04765625 -13.93140625 93.04765625 -14.94140625 98.09765625 C-15.84873705 101.46893122 -16.89412683 104.76540354 -17.94140625 108.09765625 C-23.88140625 108.09765625 -29.82140625 108.09765625 -35.94140625 108.09765625 C-35.23306708 103.84762124 -34.4731092 100.26737456 -33.19140625 96.22265625 C-32.83473877 95.08747559 -32.47807129 93.95229492 -32.1105957 92.78271484 C-31.72476318 91.56664551 -31.33893066 90.35057617 -30.94140625 89.09765625 C-30.11988915 86.48646067 -29.30182798 83.87418915 -28.484375 81.26171875 C-28.27427292 80.59113434 -28.06417084 79.92054993 -27.84770203 79.22964478 C-25.5867857 71.99607262 -23.41838518 64.73555188 -21.25390625 57.47265625 C-18.61149017 48.61960211 -15.93510476 39.78201704 -13.11962891 30.98242188 C-11.72735433 26.62145546 -10.37616555 22.25018936 -9.0546875 17.8671875 C-8.7345166 16.80556396 -8.4143457 15.74394043 -8.08447266 14.65014648 C-7.45766477 12.56585813 -6.83354771 10.48075826 -6.21240234 8.39477539 C-5.93090332 7.45883545 -5.6494043 6.52289551 -5.359375 5.55859375 C-4.98462036 4.30248291 -4.98462036 4.30248291 -4.60229492 3.02099609 C-3.55061635 -0.03963331 -3.41082373 0.11324116 0 0 Z " fill="#040404" transform="translate(354.94140625,144.90234375)"/>
<path d="M0 0 C5.61 0 11.22 0 17 0 C17.33 16.5 17.66 33 18 50 C27.72099825 33.36406485 37.38542881 16.69757462 47 0 C53.93 0 60.86 0 68 0 C64.03961307 6.95267929 59.92909551 13.73572187 55.5625 20.4375 C55.09513428 21.15832764 54.62776855 21.87915527 54.14624023 22.62182617 C50.45795271 28.30934845 50.45795271 28.30934845 48.70849609 30.94775391 C47.54259272 32.70703952 46.39476631 34.47691691 45.25 36.25 C44.59515625 37.24515625 43.9403125 38.2403125 43.265625 39.265625 C41.74428383 42.5524732 42.0690719 43.57291151 43 47 C43.6665704 48.62198232 44.3913606 50.22077348 45.16015625 51.796875 C45.61680664 52.74030762 46.07345703 53.68374023 46.54394531 54.65576172 C47.29562988 56.18740967 47.29562988 56.18740967 48.0625 57.75 C48.58038086 58.81879395 49.09826172 59.88758789 49.63183594 60.98876953 C52.48434799 66.86988492 55.36166079 72.73877753 58.24021912 78.60717773 C59.71628819 81.61905417 61.18812709 84.63298893 62.65963745 87.64709473 C63.74101809 89.85664753 64.82946484 92.06262495 65.91821289 94.26855469 C66.58641728 95.6346106 67.25431929 97.00081448 67.921875 98.3671875 C68.23380295 98.99424591 68.5457309 99.62130432 68.86711121 100.2673645 C70.22340294 103.05986518 71 104.84903888 71 108 C64.73 108 58.46 108 52 108 C47.12648728 98.44409271 42.43923671 88.81133273 37.89364624 79.09558105 C37.29798226 77.82374093 36.70034558 76.55282285 36.10073853 75.28283691 C35.24882416 73.47645449 34.40549738 71.66602971 33.5625 69.85546875 C33.06878906 68.79996826 32.57507813 67.74446777 32.06640625 66.65698242 C31 64 31 64 31 61 C30.34 61 29.68 61 29 61 C28.76410156 61.71027344 28.52820313 62.42054688 28.28515625 63.15234375 C27 66 27 66 24.87109375 68.56640625 C15.39133048 80.23731866 16.74966919 93.56091899 17 108 C11.39 108 5.78 108 0 108 C0 72.36 0 36.72 0 0 Z " fill="#010101" transform="translate(481,145)"/>
<path d="M0 0 C5.42117398 4.9592193 8.38523714 10.84755039 10 18 C10 20.64 10 23.28 10 26 C4.06 26 -1.88 26 -8 26 C-8.4125 24.4325 -8.825 22.865 -9.25 21.25 C-10.4622893 17.20712955 -11.46488497 14.54086393 -15 12 C-18.70251647 10.76582784 -22.14717863 10.5484975 -26 11 C-28.81780534 12.38885248 -28.81780534 12.38885248 -31 14 C-31.66 14 -32.32 14 -33 14 C-34.83917027 18.53662 -36.12450146 22.19218867 -36.16113281 27.1105957 C-36.17074036 28.15210281 -36.1803479 29.19360992 -36.19024658 30.26667786 C-36.1966214 31.95418404 -36.1966214 31.95418404 -36.203125 33.67578125 C-36.21167511 35.4126545 -36.21167511 35.4126545 -36.22039795 37.18461609 C-36.22984996 39.63665858 -36.23638272 42.0887138 -36.24023438 44.54077148 C-36.24993442 48.28717286 -36.28095452 52.03302441 -36.3125 55.77929688 C-36.31903066 58.16145508 -36.32428088 60.5436172 -36.328125 62.92578125 C-36.3404718 64.04471268 -36.3528186 65.1636441 -36.36553955 66.31648254 C-36.34947821 71.94104964 -36.28316428 76.19530959 -33 81 C-29.34749588 84.46987891 -26.4034317 85.30013186 -21.5 85.5 C-16.59099978 85.29323504 -13.6189623 84.52848824 -10 81 C-5.95673825 74.58655033 -6.35333554 67.42004634 -6 60 C-10.95 60 -15.9 60 -21 60 C-21 54.39 -21 48.78 -21 43 C-10.44 43 0.12 43 11 43 C11.0926747 47.62343763 11.17204058 52.2435551 11.21972656 56.8671875 C11.23963732 58.43435686 11.26677635 60.00145397 11.30175781 61.56835938 C11.55412036 73.17703639 11.28554288 83.99506855 3.6875 93.5 C-3.70038931 101.06043025 -12.07113258 103.00874879 -22.375 103.375 C-32.41216093 103.16443019 -39.87438763 100.11384855 -47.12109375 93.15234375 C-52.57663882 86.90285242 -54.08983629 80.27575815 -54.19287109 72.11499023 C-54.20893402 70.95285507 -54.22499695 69.79071991 -54.24154663 68.59336853 C-54.28633458 63.27798168 -54.32750017 57.96273861 -54.35009766 52.6472168 C-54.3633864 49.85293476 -54.39115259 47.05939176 -54.43212891 44.26538086 C-54.49147035 40.21716354 -54.50882348 36.16972409 -54.5234375 32.12109375 C-54.54610687 30.88628769 -54.56877625 29.65148163 -54.59213257 28.3792572 C-54.56654703 17.74837504 -52.02357013 9.12986417 -45 1 C-32.18240669 -9.67329668 -13.23447945 -10.58758356 0 0 Z " fill="#030303" transform="translate(739,151)"/>
<path d="M0 0 C7.26 0 14.52 0 22 0 C22 7.92 22 15.84 22 24 C27.7472955 20.4307694 27.7472955 20.4307694 33.48730469 16.84985352 C34.20821289 16.40569092 34.92912109 15.96152832 35.671875 15.50390625 C36.4050293 15.04830322 37.13818359 14.5927002 37.89355469 14.12329102 C39.94111913 13.03139903 41.73322604 12.45021894 44 12 C53 26.20081967 53 26.20081967 53 29 C49.37871557 31.00678401 45.75238357 33.0042648 42.125 35 C41.09246094 35.57234375 40.05992187 36.1446875 38.99609375 36.734375 C37.51689453 37.54648438 37.51689453 37.54648438 36.0078125 38.375 C35.09660645 38.87773438 34.18540039 39.38046875 33.24658203 39.8984375 C31 41 31 41 29 41 C29 41.66 29 42.32 29 43 C29.84304688 43.24621094 30.68609375 43.49242187 31.5546875 43.74609375 C35.34991621 45.12735046 38.67974126 46.99164018 42.125 49.0625 C47.26301044 52.25064027 47.26301044 52.25064027 53 54 C52.26733512 58.08641257 50.31342025 61.59474154 48.4375 65.25 C48.10814453 65.8996875 47.77878906 66.549375 47.43945312 67.21875 C46.62992435 68.81434294 45.81544958 70.40742483 45 72 C41.32355553 71.43200205 38.72129048 70.46584368 35.57421875 68.49609375 C34.85580811 68.05193115 34.13739746 67.60776855 33.3972168 67.15014648 C32.05590698 66.30238647 32.05590698 66.30238647 30.6875 65.4375 C27.820625 63.643125 24.95375 61.84875 22 60 C22 67.92 22 75.84 22 84 C14.74 84 7.48 84 0 84 C-0.0309375 79.7615625 -0.0309375 79.7615625 -0.0625 75.4375 C-0.071604 74.56150146 -0.08070801 73.68550293 -0.09008789 72.78295898 C-0.09258545 72.06954346 -0.09508301 71.35612793 -0.09765625 70.62109375 C-0.10551147 69.54492798 -0.10551147 69.54492798 -0.11352539 68.44702148 C0.03342074 65.2796213 0.55158017 62.13893879 1 59 C-6.26 63.29 -13.52 67.58 -21 72 C-24.31005892 68.68994108 -26.12787141 66.42187224 -28.3125 62.4375 C-28.84488281 61.48746094 -29.37726562 60.53742188 -29.92578125 59.55859375 C-31 57 -31 57 -30 54 C-28.08227539 52.6496582 -28.08227539 52.6496582 -25.59765625 51.30078125 C-24.70755859 50.81416016 -23.81746094 50.32753906 -22.90039062 49.82617188 C-21.96388672 49.32666016 -21.02738281 48.82714844 -20.0625 48.3125 C-19.12986328 47.80138672 -18.19722656 47.29027344 -17.23632812 46.76367188 C-10.28685122 43 -10.28685122 43 -8 43 C-8 42.34 -8 41.68 -8 41 C-8.81855469 40.76023438 -9.63710938 40.52046875 -10.48046875 40.2734375 C-14.67401644 38.75612724 -18.42409404 36.79033617 -22.3125 34.625 C-23.04017578 34.23828125 -23.76785156 33.8515625 -24.51757812 33.453125 C-25.55495117 32.87691406 -25.55495117 32.87691406 -26.61328125 32.2890625 C-27.24016846 31.94568848 -27.86705566 31.60231445 -28.51293945 31.24853516 C-30.47155674 29.60408124 -30.77435788 28.52731076 -31 26 C-29.77808788 23.44640587 -28.53634417 21.14712838 -27.0625 18.75 C-26.67642578 18.1003125 -26.29035156 17.450625 -25.89257812 16.78125 C-24.93941582 15.18087871 -23.97114076 13.5895258 -23 12 C-19.6303126 12.65296151 -17.15690992 13.94290742 -14.234375 15.72265625 C-13.34492187 16.26083984 -12.45546875 16.79902344 -11.5390625 17.35351562 C-10.15847656 18.19946289 -10.15847656 18.19946289 -8.75 19.0625 C-7.81414063 19.63033203 -6.87828125 20.19816406 -5.9140625 20.78320312 C-3.60652528 22.18420787 -1.30201057 23.58993926 1 25 C0.9278125 24.11699219 0.855625 23.23398437 0.78125 22.32421875 C0.6884375 21.12410156 0.595625 19.92398438 0.5 18.6875 C0.4071875 17.51574219 0.314375 16.34398437 0.21875 15.13671875 C-0.04771584 10.09765943 0 5.04609977 0 0 Z " fill="#050505" transform="translate(733,21)"/>
<path d="M0 0 C10.56 0 21.12 0 32 0 C38.48068882 12.96137764 38.48068882 12.96137764 40.91845703 19.26660156 C42.22969819 22.58051941 43.63732627 25.84945047 45.05859375 29.1171875 C45.33216705 29.74667297 45.60574036 30.37615845 45.88760376 31.02471924 C46.7364643 32.97529633 47.58680669 34.9252216 48.4375 36.875 C51.55813213 44.0332018 54.678646 51.19160894 57.72265625 58.3828125 C58.09269775 59.25566895 58.46273926 60.12852539 58.84399414 61.02783203 C60.37527648 64.9648608 61.66414742 68.99244226 63 73 C53.76 73 44.52 73 35 73 C29 58 23 43 17 28 C16.34 28 15.68 28 15 28 C13.2350944 32.1564049 11.47554575 36.31502862 9.72045898 40.47558594 C9.12549299 41.88405074 8.52918732 43.29195056 7.93139648 44.69921875 C3.96533041 54.03898748 0.32743554 63.41247385 -3 73 C-11.91 73 -20.82 73 -30 73 C-29.26790811 68.60744865 -28.74672155 65.95328033 -27.06640625 62.07421875 C-26.61797363 61.03056152 -26.16954102 59.9869043 -25.70751953 58.91162109 C-25.44352356 58.30686951 -25.17952759 57.70211792 -24.90753174 57.07904053 C-23.8591121 54.67724361 -22.81990952 52.2715454 -21.78076172 49.86572266 C-19.62701653 44.8858872 -17.46388288 39.91018681 -15.29760742 34.93579102 C-13.93634156 31.80983981 -12.57645517 28.68329134 -11.21679688 25.55664062 C-10.34122603 23.54423594 -9.46557765 21.53186498 -8.58984375 19.51953125 C-8.18869858 18.59743362 -7.78755341 17.675336 -7.37425232 16.72529602 C-6.99027786 15.84375351 -6.60630341 14.962211 -6.21069336 14.05395508 C-5.87935898 13.29294998 -5.5480246 12.53194489 -5.20664978 11.74787903 C-3.48447993 7.82601662 -1.73962308 3.91415192 0 0 Z " fill="#050505" transform="translate(634,30)"/>
<path d="M0 0 C5.94 0 11.88 0 18 0 C18.89203125 2.42214844 19.7840625 4.84429687 20.703125 7.33984375 C21.57952976 9.71323563 22.45695338 12.08624852 23.33447266 14.45922852 C23.93872658 16.09490362 24.54193864 17.73096403 25.14404297 19.36743164 C26.01509107 21.73428456 26.89001226 24.09967628 27.765625 26.46484375 C28.02933899 27.18397446 28.29305298 27.90310516 28.5647583 28.64402771 C30.50207441 33.86087462 32.69041024 38.93757664 35 44 C35.18570053 43.47826202 35.37140106 42.95652405 35.56272888 42.41897583 C37.49154826 37.0006158 39.42213467 31.58288777 41.35375977 26.16552734 C42.07491904 24.14225237 42.79562389 22.11881537 43.51586914 20.09521484 C44.5497556 17.19065563 45.5852619 14.28667842 46.62109375 11.3828125 C46.94403915 10.47443634 47.26698456 9.56606018 47.59971619 8.63015747 C47.89995193 7.78943695 48.20018768 6.94871643 48.50952148 6.08251953 C48.77377426 5.34083527 49.03802704 4.599151 49.31028748 3.83499146 C50 2 50 2 51 0 C56.94 0 62.88 0 69 0 C66.97281069 7.14108857 64.53116962 13.9184294 61.65625 20.7578125 C61.24588501 21.7457077 60.83552002 22.73360291 60.41271973 23.75143433 C59.11308733 26.87789858 57.80687053 30.00155529 56.5 33.125 C55.19437424 36.25608847 53.89015999 39.38775691 52.58728027 42.51998901 C51.77998557 44.45967164 50.97092471 46.39862047 50.15979004 48.33670044 C49.42779926 50.09132539 48.70193254 51.84852154 47.98310852 53.60858154 C47.36917809 55.10197168 46.73811446 56.58856687 46.08171082 58.06378174 C43.77886963 63.50837795 43.52899275 68.53737776 43.48828125 74.40625 C43.47033005 75.3715564 43.45237885 76.33686279 43.43388367 77.3314209 C43.38008802 80.38757068 43.34598394 83.44356706 43.3125 86.5 C43.27929978 88.58335454 43.24480764 90.66668891 43.20898438 92.75 C43.12437933 97.83322209 43.05742208 102.91640112 43 108 C37.39 108 31.78 108 26 108 C26.13664062 105.25042969 26.27328125 102.50085938 26.4140625 99.66796875 C27.34631392 71.25515372 21.66155082 50.08928658 9.24902344 24.69726562 C6.9762293 20.01397663 4.90506832 15.26226608 2.9140625 10.453125 C2.61631927 9.74331482 2.31857605 9.03350464 2.0118103 8.30218506 C0.81699413 5.37498221 0 3.19329873 0 0 Z " fill="#020202" transform="translate(142,145)"/>
<path d="M0 0 C5.94 0 11.88 0 18 0 C18 30.03 18 60.06 18 91 C31.53 91 45.06 91 59 91 C59 96.61 59 102.22 59 108 C39.53 108 20.06 108 0 108 C0 72.36 0 36.72 0 0 Z " fill="#0A0A0A" transform="translate(409,145)"/>
<path d="M0 0 C5.94 0 11.88 0 18 0 C18.09068615 10.87536206 18.16393725 21.75046937 18.20724869 32.62612534 C18.22804521 37.67716368 18.2562165 42.72792794 18.30175781 47.77880859 C18.34550034 52.66123363 18.36919665 57.5433965 18.37950897 62.4260025 C18.38684968 64.28057222 18.4011832 66.13512902 18.42292023 67.98958588 C18.70739389 93.2852252 18.70739389 93.2852252 9.77734375 102.6015625 C1.60375036 109.03265356 -8.00123981 109.63521535 -18 109 C-24.59410361 107.81747078 -30.21631767 104.69190905 -35 100 C-36.22265625 97.80859375 -36.22265625 97.80859375 -37 96 C-35.07254909 94.29965959 -33.13458261 92.61509021 -31.1875 90.9375 C-30.64029297 90.45216797 -30.09308594 89.96683594 -29.52929688 89.46679688 C-28.08389691 88.23163691 -26.54572201 87.10704321 -25 86 C-24.01 86.33 -23.02 86.66 -22 87 C-22 87.66 -22 88.32 -22 89 C-17.26260015 91.52661325 -12.24239414 91.57964683 -7 91 C-4.59895663 90.15813148 -3.37046542 89.52883461 -1.90640259 87.43890381 C-0.59642912 83.91409119 -0.69142686 80.45513787 -0.68115234 76.74316406 C-0.66608391 75.49870766 -0.66608391 75.49870766 -0.65071106 74.22911072 C-0.61986018 71.49128909 -0.60283864 68.75356533 -0.5859375 66.015625 C-0.56722738 64.11561235 -0.54765409 62.21560803 -0.5272522 60.31561279 C-0.47590849 55.31798202 -0.4362947 50.3203243 -0.39910889 45.3225708 C-0.35908332 40.22148968 -0.30798436 35.12052088 -0.2578125 30.01953125 C-0.1610266 20.01309185 -0.07765379 10.00660618 0 0 Z " fill="#070707" transform="translate(44,145)"/>
<path d="M0 0 C5.61 0 11.22 0 17 0 C17 35.64 17 71.28 17 108 C11.39 108 5.78 108 0 108 C0 72.36 0 36.72 0 0 Z " fill="#000000" transform="translate(563,145)"/>
<path d="M0 0 C2.25655177 3.38482765 3.22101999 6.69900034 4.3125 10.5625 C4.52543701 11.30322754 4.73837402 12.04395508 4.95776367 12.80712891 C5.64404441 15.20321042 6.32194717 17.60157858 7 20 C7.47908052 21.67320175 7.95824716 23.34637885 8.4375 25.01953125 C8.89654229 26.6378199 9.35489541 28.25630422 9.8125 29.875 C10.03139893 30.64142822 10.25029785 31.40785645 10.47583008 32.19750977 C11.3206543 35.22125235 12 37.84432839 12 41 C4.41 41 -3.18 41 -11 41 C-9.58968822 33.2432852 -8.05654945 25.83441983 -6.0625 18.25 C-5.81048828 17.26128906 -5.55847656 16.27257812 -5.29882812 15.25390625 C-3.91028 9.93409782 -2.3308749 4.98181024 0 0 Z " fill="#F3F3F3" transform="translate(358,176)"/>
<path d="M0 0 C2.04597859 3.62753968 3.08263591 7.47652679 4.1640625 11.46875 C4.36099701 12.186073 4.55793152 12.903396 4.76083374 13.64245605 C5.17469694 15.15477901 5.58640647 16.66769279 5.99609375 18.18115234 C6.62332028 20.49380669 7.26043125 22.80358066 7.8984375 25.11328125 C8.30007921 26.58577396 8.70114056 28.05842512 9.1015625 29.53125 C9.38744736 30.56421204 9.38744736 30.56421204 9.67910767 31.61804199 C10.56302358 34.9122697 11 37.55373968 11 41 C3.74 41 -3.52 41 -11 41 C-9.82060003 35.10300015 -8.68156122 29.49968154 -7.08984375 23.75 C-6.73986328 22.48285156 -6.38988281 21.21570313 -6.02929688 19.91015625 C-5.85003662 19.26836426 -5.67077637 18.62657227 -5.48608398 17.96533203 C-4.9310159 15.97677035 -4.38213314 13.98657266 -3.83398438 11.99609375 C-1.13638573 2.27277146 -1.13638573 2.27277146 0 0 Z " fill="#F8F8F8" transform="translate(109,175)"/>
</svg>
